<svg width="25" height="26" viewBox="0 0 25 26" fill="none" xmlns="http://www.w3.org/2000/svg">
<path d="M12.5647 6.7746C9.07066 6.7746 6.25077 9.59449 6.25077 13.0886C6.25077 16.5826 9.07066 19.4025 12.5647 19.4025C16.0588 19.4025 18.8787 16.5826 18.8787 13.0886C18.8787 9.59449 16.0588 6.7746 12.5647 6.7746ZM12.5647 17.1922C10.3051 17.1922 8.46112 15.3482 8.46112 13.0886C8.46112 10.829 10.3051 8.98495 12.5647 8.98495C14.8243 8.98495 16.6683 10.829 16.6683 13.0886C16.6683 15.3482 14.8243 17.1922 12.5647 17.1922ZM19.1373 5.04449C18.3215 5.04449 17.6627 5.70329 17.6627 6.51908C17.6627 7.33488 18.3215 7.99368 19.1373 7.99368C19.9531 7.99368 20.6119 7.33796 20.6119 6.51908C20.6121 6.32537 20.5742 6.13351 20.5001 5.95449C20.4261 5.77548 20.3175 5.61282 20.1805 5.47585C20.0436 5.33887 19.8809 5.23026 19.7019 5.15624C19.5229 5.08222 19.331 5.04425 19.1373 5.04449ZM24.8725 13.0886C24.8725 11.3892 24.8879 9.70531 24.7925 8.00907C24.697 6.03884 24.2476 4.29026 22.8068 2.84954C21.363 1.40573 19.6175 0.959348 17.6473 0.863915C15.948 0.768482 14.2641 0.783875 12.5678 0.783875C10.8685 0.783875 9.18456 0.768482 7.48832 0.863915C5.51809 0.959348 3.76951 1.40881 2.32878 2.84954C0.884976 4.29334 0.438596 6.03884 0.343163 8.00907C0.24773 9.70839 0.263123 11.3923 0.263123 13.0886C0.263123 14.7848 0.24773 16.4718 0.343163 18.1681C0.438596 20.1383 0.888054 21.8869 2.32878 23.3276C3.77259 24.7714 5.51809 25.2178 7.48832 25.3132C9.18764 25.4086 10.8716 25.3933 12.5678 25.3933C14.2671 25.3933 15.9511 25.4086 17.6473 25.3132C19.6175 25.2178 21.3661 24.7683 22.8068 23.3276C24.2506 21.8838 24.697 20.1383 24.7925 18.1681C24.891 16.4718 24.8725 14.7879 24.8725 13.0886ZM22.1634 20.3476C21.9387 20.9079 21.6678 21.3266 21.2337 21.7576C20.7997 22.1916 20.3841 22.4625 19.8238 22.6873C18.2045 23.3307 14.3595 23.186 12.5647 23.186C10.77 23.186 6.92188 23.3307 5.3026 22.6903C4.74231 22.4656 4.32364 22.1947 3.89265 21.7606C3.45859 21.3266 3.18768 20.911 2.96295 20.3507C2.32263 18.7283 2.46732 14.8833 2.46732 13.0886C2.46732 11.2938 2.32263 7.44571 2.96295 5.82643C3.18768 5.26614 3.45859 4.84747 3.89265 4.41648C4.32672 3.9855 4.74231 3.71151 5.3026 3.48678C6.92188 2.84646 10.77 2.99115 12.5647 2.99115C14.3595 2.99115 18.2076 2.84646 19.8269 3.48678C20.3872 3.71151 20.8058 3.98242 21.2368 4.41648C21.6709 4.85055 21.9418 5.26614 22.1665 5.82643C22.8068 7.44571 22.6622 11.2938 22.6622 13.0886C22.6622 14.8833 22.8068 18.7283 22.1634 20.3476Z" fill="white"/>
</svg>
