<svg width="25" height="20" viewBox="0 0 25 20" fill="none" xmlns="http://www.w3.org/2000/svg">
<path d="M24.0692 2.46299C23.2025 2.83684 22.2594 3.1059 21.288 3.21069C22.2966 2.6115 23.0518 1.66487 23.4121 0.548422C22.4657 1.11143 21.4289 1.50623 20.3477 1.71529C19.8958 1.23219 19.3493 0.847332 18.7421 0.584695C18.135 0.322059 17.4803 0.187271 16.8188 0.188732C14.1423 0.188732 11.9899 2.3582 11.9899 5.02047C11.9899 5.39432 12.0352 5.76817 12.1088 6.12786C8.10124 5.91828 4.527 4.00371 2.15078 1.07238C1.71781 1.81191 1.49092 2.65395 1.49371 3.51091C1.49371 5.18757 2.3462 6.66598 3.64619 7.53547C2.88009 7.50529 2.13193 7.29472 1.46256 6.92088V6.98035C1.46256 9.32825 3.12223 11.274 5.33418 11.7215C4.91886 11.8293 4.49162 11.8845 4.06252 11.8857C3.74815 11.8857 3.45076 11.8546 3.15055 11.8121C3.76231 13.7267 5.54376 15.1173 7.66508 15.1626C6.00541 16.4626 3.92657 17.2273 1.66931 17.2273C1.2643 17.2273 0.890453 17.2131 0.502441 17.1678C2.64359 18.5414 5.18407 19.3344 7.91998 19.3344C16.8018 19.3344 21.6618 11.9764 21.6618 5.58974C21.6618 5.38016 21.6618 5.17058 21.6477 4.96099C22.588 4.27277 23.4121 3.42028 24.0692 2.46299Z" fill="white"/>
</svg>
